<svg xmlns="http://www.w3.org/2000/svg" width="35.055" height="30.937" viewBox="0 0 35.055 30.937">
  <path id="Icon_awesome-phone-alt" data-name="Icon awesome-phone-alt" d="M29.623,17.769l-6.67-2.358a1.635,1.635,0,0,0-1.668.339l-2.954,2.976a20.567,20.567,0,0,1-10.553-8.7l3.609-2.436A1.048,1.048,0,0,0,11.8,6.213L8.94.712A1.534,1.534,0,0,0,7.3.03L1.108,1.208A1.253,1.253,0,0,0,0,2.357c0,12.6,12.382,22.789,27.635,22.789a1.4,1.4,0,0,0,1.394-.914l1.429-5.108a1.156,1.156,0,0,0-.834-1.356Z" transform="translate(5.228 0) rotate(12)" fill="#d7b867"/>
</svg>